<svg width="24" height="24" viewBox="0 0 24 24" fill="none" xmlns="http://www.w3.org/2000/svg">
<path d="M12 24C18.6274 24 24 18.6274 24 12C24 5.37258 18.6274 0 12 0C5.37258 0 0 5.37258 0 12C0 18.6274 5.37258 24 12 24Z" fill="#F6CD18"/>
<path d="M17.5342 15.4292C17.2532 15.4687 15.8874 15.4292 15.8163 15.4292C15.4632 15.4328 15.1229 15.2973 14.8689 15.0519C14.58 14.774 14.3195 14.4677 14.0432 14.1787C13.9593 14.0906 13.869 14.0088 13.7732 13.934C13.5474 13.7619 13.3247 13.8013 13.2189 14.0666C13.1361 14.3541 13.079 14.6484 13.0484 14.9461C13.0435 15.0715 12.989 15.1898 12.8969 15.275C12.8049 15.3603 12.6828 15.4055 12.5574 15.4008C12.371 15.4103 12.1847 15.415 12 15.4103C11.328 15.4068 10.6663 15.2445 10.0689 14.9366C9.42407 14.5762 8.86196 14.0846 8.41894 13.4935C7.71013 12.5575 7.09755 11.5524 6.59052 10.4935C6.56368 10.4398 6.03158 9.30766 6.01894 9.25556C5.98595 9.18137 5.9828 9.09733 6.01015 9.02088C6.03749 8.94444 6.09323 8.88146 6.16579 8.84503C6.26052 8.80871 8.01473 8.84503 8.04315 8.84503C8.17378 8.84379 8.30138 8.88433 8.40734 8.96074C8.51329 9.03715 8.59204 9.14543 8.6321 9.26977C8.95653 10.0969 9.39959 10.8724 9.94736 11.5719C10.0238 11.6662 10.1137 11.7486 10.2142 11.8166C10.2401 11.8416 10.2722 11.8592 10.3072 11.8677C10.3422 11.8761 10.3789 11.875 10.4133 11.8646C10.4478 11.8541 10.4788 11.8346 10.5032 11.8082C10.5276 11.7817 10.5445 11.7492 10.5521 11.714C10.6215 11.4857 10.6623 11.2497 10.6737 11.0113C10.6832 10.5377 10.6737 10.2219 10.6468 9.74819C10.6564 9.58677 10.6019 9.42809 10.4952 9.3066C10.3885 9.18511 10.2381 9.1106 10.0768 9.09924C9.93789 9.07556 9.91894 8.96187 10.0153 8.84819C10.2 8.61292 10.4558 8.57503 10.7337 8.56082C11.1537 8.53714 11.5753 8.56082 11.9968 8.56082H12.0884C12.2735 8.56036 12.4582 8.57888 12.6395 8.61608C12.7455 8.6378 12.8417 8.69318 12.9136 8.77399C12.9856 8.85479 13.0296 8.95669 13.0389 9.0645C13.0602 9.18381 13.0697 9.30492 13.0674 9.42608C13.0563 9.9424 13.031 10.4587 13.0247 10.9766C13.021 11.1812 13.0395 11.3855 13.08 11.5861C13.1416 11.8608 13.3295 11.9303 13.5221 11.7298C13.7621 11.4721 13.9823 11.1966 14.1805 10.9056C14.537 10.3757 14.8306 9.80603 15.0553 9.20819C15.1768 8.90187 15.27 8.83398 15.6 8.83398H17.4616C17.5726 8.83213 17.6834 8.84703 17.79 8.87819C17.8276 8.88822 17.8628 8.90588 17.8933 8.93008C17.9238 8.95427 17.9491 8.98448 17.9674 9.01883C17.9858 9.05318 17.9969 9.09094 18 9.12976C18.0032 9.16858 17.9984 9.20764 17.9858 9.2445C17.8769 9.6406 17.6901 10.011 17.4363 10.334C17.0574 10.8692 16.6595 11.3919 16.271 11.9129C16.2219 11.9811 16.1771 12.0523 16.1368 12.1261C15.9916 12.3882 16.0026 12.5366 16.2126 12.7577C16.5505 13.105 16.9121 13.4319 17.2374 13.7887C17.4772 14.0487 17.6939 14.3293 17.8847 14.6271C18.1247 15.0124 17.9779 15.3661 17.5342 15.4292V15.4292Z" fill="white"/>
</svg>