<svg width="40" height="40" viewBox="0 0 40 40" fill="none" xmlns="http://www.w3.org/2000/svg">
<rect width="40" height="40" fill="#F6CD18"/>
<path d="M10 13H32V27H10V13Z" fill="white"/>
<path d="M9 10V30" stroke="white" stroke-width="2" stroke-linecap="round" stroke-linejoin="round"/>
<rect x="13" y="14" width="3" height="3" fill="#F6CD18"/>
<rect x="13" y="20" width="3" height="3" fill="#F6CD18"/>
<rect x="10" y="17" width="3" height="3" fill="#F6CD18"/>
<rect x="10" y="23" width="3" height="3" fill="#F6CD18"/>
<rect x="19" y="14" width="3" height="3" fill="#F6CD18"/>
<rect x="19" y="20" width="3" height="3" fill="#F6CD18"/>
<rect x="16" y="17" width="3" height="3" fill="#F6CD18"/>
<rect x="16" y="23" width="3" height="3" fill="#F6CD18"/>
<rect x="25" y="14" width="3" height="3" fill="#F6CD18"/>
<rect x="25" y="20" width="3" height="3" fill="#F6CD18"/>
<rect x="22" y="17" width="3" height="3" fill="#F6CD18"/>
<rect x="22" y="23" width="3" height="3" fill="#F6CD18"/>
<rect x="28" y="17" width="3" height="3" fill="#F6CD18"/>
<rect x="28" y="23" width="3" height="3" fill="#F6CD18"/>
</svg>