<svg width="140" height="67" viewBox="0 0 140 67" fill="none" xmlns="http://www.w3.org/2000/svg">
<g clip-path="url(#clip0)">
<path d="M0 62.2345V61.1566H1.99349V62.348C1.99349 64.1634 2.73393 65.0144 4.21481 65.0144C5.69569 65.0144 6.43613 64.1067 6.43613 62.348C6.43613 61.7807 6.32221 61.2701 6.09439 60.7595C5.86656 60.2489 5.58177 59.8518 5.18308 59.4547C4.84133 59.0576 4.38568 58.7172 3.93002 58.3768C3.47437 58.0364 3.01871 57.6393 2.56306 57.2421C2.1074 56.845 1.70871 56.4479 1.36697 55.994C1.02522 55.5402 0.683483 55.0296 0.455655 54.4623C0.227828 53.8383 0.113914 53.2142 0.113914 52.4767C0.113914 51.0017 0.455655 49.867 1.13914 49.0161C1.82262 48.2218 2.84784 47.768 4.27177 47.768C5.63873 47.768 6.72091 48.1651 7.40439 49.0161C8.08788 49.867 8.42962 51.0017 8.42962 52.4767V52.9873H6.43613V52.3632C6.43613 50.5478 5.69569 49.6968 4.27177 49.6968C2.84784 49.6968 2.1074 50.6046 2.1074 52.3632C2.1074 52.9305 2.22132 53.4411 2.44915 53.9517C2.67697 54.4623 2.96176 54.8594 3.36046 55.2565C3.75915 55.6537 4.15785 55.9941 4.61351 56.3912C5.06916 56.7316 5.52482 57.1287 5.98047 57.5258C6.43613 57.9229 6.83483 58.32 7.23352 58.7739C7.63222 59.2277 7.91701 59.7383 8.14483 60.3056C8.37266 60.9297 8.48657 61.5537 8.48657 62.2913C8.48657 63.7663 8.14483 64.9009 7.40439 65.7519C6.66395 66.6028 5.63873 67 4.21481 67C2.79089 67 1.76566 66.6028 1.02522 65.7519C0.341741 64.8442 0 63.7095 0 62.2345ZM13.0431 49.867H9.56875V47.9382H18.6249V49.867H15.1505V66.7163H13.0431V49.867ZM24.0358 62.1778V52.5334C24.0358 51.0584 24.3775 49.9238 25.118 49.0728C25.8015 48.2218 26.8836 47.8247 28.2506 47.8247C29.6745 47.8247 30.6998 48.2218 31.4402 49.0728C32.1806 49.9238 32.5224 51.0584 32.5224 52.5334V54.2354H30.5289V52.42C30.5289 50.6046 29.7884 49.6968 28.3076 49.6968C27.5671 49.6968 26.9976 49.9238 26.6558 50.3776C26.3141 50.8315 26.0862 51.5123 26.0862 52.3632V62.2913C26.0862 63.1422 26.2571 63.823 26.6558 64.2769C26.9976 64.7307 27.5671 64.9576 28.3076 64.9576C29.7884 64.9576 30.5289 64.0499 30.5289 62.2345V59.7951H32.5224V62.1211C32.5224 63.5961 32.1806 64.7307 31.4402 65.5817C30.6998 66.4327 29.6745 66.8298 28.2506 66.8298C26.8267 66.8298 25.8015 66.4327 25.118 65.5817C24.4345 64.8442 24.0358 63.6528 24.0358 62.1778ZM34.288 62.1778V52.5334C34.288 51.0584 34.6298 49.9238 35.3702 49.0728C36.1107 48.2218 37.1359 47.8247 38.5598 47.8247C39.9837 47.8247 41.0659 48.2218 41.8063 49.0728C42.5468 49.9238 42.8885 51.0584 42.8885 52.5334V62.2345C42.8885 63.7095 42.5468 64.8442 41.8063 65.6951C41.0659 66.5461 39.9837 66.9432 38.5598 66.9432C37.1359 66.9432 36.1107 66.5461 35.3702 65.6951C34.6298 64.7874 34.288 63.6528 34.288 62.1778ZM36.3385 52.42V62.348C36.3385 63.199 36.5094 63.8797 36.9081 64.3336C37.2498 64.7874 37.8194 65.0144 38.5598 65.0144C40.0407 65.0144 40.7811 64.1067 40.7811 62.2913V52.42C40.7811 51.569 40.6103 50.8882 40.2116 50.4344C39.8698 49.9805 39.3002 49.7536 38.5028 49.7536C37.7624 49.7536 37.1928 49.9805 36.8511 50.4344C36.5094 50.8882 36.3385 51.5123 36.3385 52.42ZM46.7616 66.7163H44.882V47.9949H47.559L51.8877 61.5537V47.9949H53.7673V66.773H51.6029L46.7616 51.6257V66.7163ZM55.5899 62.2345V61.1566H57.5834V62.348C57.5834 64.1634 58.3238 65.0144 59.8047 65.0144C61.2856 65.0144 62.026 64.1067 62.026 62.348C62.026 61.7807 61.9121 61.2701 61.6843 60.7595C61.4565 60.2489 61.1717 59.8518 60.773 59.4547C60.4312 59.0576 59.9756 58.7172 59.5199 58.3768C59.0643 58.0364 58.6086 57.6393 58.153 57.2421C57.6973 56.845 57.2986 56.4479 56.9569 55.994C56.6151 55.5402 56.2734 55.0296 56.0456 54.4623C55.8177 53.8383 55.7038 53.2142 55.7038 52.4767C55.7038 51.0017 56.0456 49.867 56.729 49.0161C57.4125 48.2218 58.4378 47.768 59.8617 47.768C61.2286 47.768 62.3108 48.1651 62.9943 49.0161C63.6778 49.867 64.0195 51.0017 64.0195 52.4767V52.9873H62.026V52.3632C62.026 50.5478 61.2856 49.6968 59.8617 49.6968C58.4378 49.6968 57.6973 50.6046 57.6973 52.3632C57.6973 52.9305 57.8112 53.4411 58.0391 53.9517C58.2669 54.4623 58.5517 54.8594 58.9504 55.2565C59.3491 55.6537 59.7478 55.9941 60.2034 56.3912C60.6591 56.7316 61.1147 57.1287 61.5704 57.5258C62.026 57.9229 62.4247 58.32 62.8234 58.7739C63.2221 59.2277 63.5069 59.7383 63.7347 60.3056C63.9626 60.9297 64.0765 61.5537 64.0765 62.2913C64.0765 63.7663 63.7347 64.9009 62.9943 65.7519C62.2539 66.6028 61.2286 67 59.8047 67C58.3808 67 57.3556 66.6028 56.6151 65.7519C55.9317 64.8442 55.5899 63.7095 55.5899 62.2345ZM68.5761 49.867H65.1017V47.9382H74.1009V49.867H70.6265V66.7163H68.5761V49.867ZM77.6892 66.7163H75.5818V47.9949H79.7966C81.2205 47.9949 82.3027 48.3353 82.9862 49.0728C83.6696 49.8103 84.0114 50.8882 84.0114 52.3065V53.8383C84.0114 55.9373 83.214 57.1854 81.6762 57.696C82.5305 57.9229 83.1001 58.3768 83.4988 59.0576C83.8975 59.7383 84.0684 60.5893 84.0684 61.6105V64.5038C84.0684 65.5249 84.1823 66.3192 84.467 66.773H82.3596C82.1318 66.2057 82.0179 65.4682 82.0179 64.5038V61.5537C82.0179 60.5326 81.7901 59.7951 81.3344 59.3979C80.8788 59.0008 80.1953 58.7739 79.284 58.7739H77.8031V66.7163H77.6892ZM77.6892 49.867V56.7883H79.227C80.1383 56.7883 80.7649 56.6181 81.2205 56.221C81.6762 55.8239 81.904 55.1998 81.904 54.2354V52.42C81.904 51.569 81.7331 50.8882 81.3914 50.4911C81.0496 50.094 80.4801 49.867 79.7396 49.867H77.6892ZM86.0618 62.1778V47.9949H88.1123V62.348C88.1123 64.1634 88.8527 65.0711 90.3336 65.0711C91.7575 65.0711 92.498 64.1634 92.498 62.348V47.9949H94.4915V62.2345C94.4915 63.7095 94.1497 64.8442 93.4093 65.6951C92.7258 66.5461 91.6436 66.9432 90.2197 66.9432C88.8527 66.9432 87.7705 66.5461 87.0871 65.6951C86.4036 64.8442 86.0618 63.6528 86.0618 62.1778ZM96.371 62.1778V52.5334C96.371 51.0584 96.7128 49.9238 97.4532 49.0728C98.1367 48.2218 99.2189 47.8247 100.586 47.8247C102.01 47.8247 103.035 48.2218 103.775 49.0728C104.516 49.9238 104.858 51.0584 104.858 52.5334V54.2354H102.864V52.42C102.864 50.6046 102.124 49.6968 100.643 49.6968C99.9024 49.6968 99.3328 49.9238 98.9911 50.3776C98.6493 50.8315 98.4215 51.5123 98.4215 52.3632V62.2913C98.4215 63.1422 98.5924 63.823 98.9911 64.2769C99.3328 64.7307 99.9024 64.9576 100.643 64.9576C102.124 64.9576 102.864 64.0499 102.864 62.2345V59.7951H104.858V62.1211C104.858 63.5961 104.516 64.7307 103.775 65.5817C103.035 66.4327 102.01 66.8298 100.586 66.8298C99.1619 66.8298 98.1367 66.4327 97.4532 65.5817C96.7697 64.8442 96.371 63.6528 96.371 62.1778ZM109.471 49.867H105.997V47.9382H115.053V49.867H111.579V66.7163H109.528L109.471 49.867ZM118.527 66.7163H116.42V47.9949H118.527V66.7163ZM120.521 62.1778V52.5334C120.521 51.0584 120.862 49.9238 121.603 49.0728C122.343 48.2218 123.369 47.8247 124.793 47.8247C126.216 47.8247 127.299 48.2218 128.039 49.0728C128.779 49.9238 129.121 51.0584 129.121 52.5334V62.2345C129.121 63.7095 128.779 64.8442 128.039 65.6951C127.299 66.5461 126.216 66.9432 124.793 66.9432C123.369 66.9432 122.343 66.5461 121.603 65.6951C120.919 64.7874 120.521 63.6528 120.521 62.1778ZM122.571 52.42V62.348C122.571 63.199 122.742 63.8797 123.141 64.3336C123.483 64.7874 124.052 65.0144 124.793 65.0144C126.273 65.0144 127.014 64.1067 127.014 62.2913V52.42C127.014 51.569 126.843 50.8882 126.444 50.4344C126.103 49.9805 125.533 49.7536 124.793 49.7536C124.052 49.7536 123.483 49.9805 123.141 50.4344C122.799 50.8882 122.571 51.5123 122.571 52.42ZM132.994 66.7163H131.115V47.9949H133.792L138.12 61.5537V47.9949H140V66.773H137.836L132.994 51.6257V66.7163Z" fill="#303031"/>
<path d="M75.6388 20.5936C75.6388 20.1964 75.2971 19.9128 74.9553 19.9128H72.5631C72.1644 19.9128 71.8796 20.2532 71.8796 20.5936V24.2244C71.8796 24.6215 72.2214 24.9052 72.5631 24.9052H74.9553C75.354 24.9052 75.6388 24.5648 75.6388 24.2244V20.5936ZM72.4492 0.170192C72.1075 -0.0567343 71.8796 0.0567288 71.8796 0.45385V9.81456C71.8796 10.2117 72.2214 10.4953 72.5631 10.4953H74.9553C75.354 10.4953 75.6388 10.155 75.6388 9.81456V7.77222C75.6388 7.3751 75.9236 7.26164 76.2084 7.48857L107.193 29.2735C107.535 29.5004 107.478 29.6706 107.079 29.6706H76.3792C75.9805 29.6706 75.6957 29.3302 75.6957 28.9898V27.9119C75.6957 27.5148 75.354 27.2312 75.0123 27.2312H72.6201C72.2214 27.2312 71.9366 27.5715 71.9366 27.9119V32.7909C71.9366 33.188 72.2783 33.4716 72.6201 33.4716H119.04C119.439 33.4716 119.496 33.3014 119.154 33.0745L72.4492 0.170192ZM72.5631 12.7079C72.1644 12.7079 71.8796 13.0483 71.8796 13.3887V17.0195C71.8796 17.4166 72.2214 17.7003 72.5631 17.7003H74.9553C75.354 17.7003 75.6388 17.3599 75.6388 17.0195V13.3887C75.6388 12.9915 75.2971 12.7079 74.9553 12.7079H72.5631Z" fill="#F6CD18"/>
<path d="M33.9464 29.2168C33.6047 29.4437 33.6616 29.6139 34.0603 29.6139H64.7601C65.1588 29.6139 65.4436 29.2735 65.4436 28.9331V7.71551C65.4436 7.31839 65.1588 7.20492 64.874 7.43185L33.9464 29.2168ZM69.3166 32.6774C69.3166 33.0745 68.9749 33.3582 68.6332 33.3582H22.2133C21.8146 33.3582 21.7577 33.188 22.0994 32.9611L68.7471 0.113475C69.0888 -0.113451 69.3166 1.19219e-05 69.3166 0.397133V32.6774Z" fill="#F6CD18"/>
</g>
<defs>
<clipPath id="clip0">
<rect width="140" height="67" fill="white"/>
</clipPath>
</defs>
</svg>